<svg xmlns="http://www.w3.org/2000/svg" viewBox="0 0 256 256" width="48" height="48"><path d="M128 6.4C60.95 6.4 6.4 60.95 6.4 128S60.95 249.6 128 249.6 249.6 195.05 249.6 128 195.05 6.4 128 6.4zm0 18.24c57.192 0 103.36 46.168 103.36 103.36S185.192 231.36 128 231.36 24.64 185.192 24.64 128 70.808 24.64 128 24.64zm-3.183 30.27a9.12 9.12 0 00-8.977 9.25v72.96a9.12 9.12 0 009.12 9.12h48.64a9.12 9.12 0 100-18.24h-39.52V64.16a9.12 9.12 0 00-9.263-9.25z" fill="#5f6b77" font-family="none" font-weight="none" font-size="none" text-anchor="none"/></svg>