<svg width="37" height="38" fill="none" xmlns="http://www.w3.org/2000/svg"><path fill-rule="evenodd" clip-rule="evenodd" d="M.842.836a2.906 2.906 0 014.077 0l10.47 10.402a2.86 2.86 0 010 4.05 2.906 2.906 0 01-4.076 0L.842 4.887a2.86 2.86 0 010-4.05z" fill="#506CCF"/><path fill-rule="evenodd" clip-rule="evenodd" d="M17.18 17.298a2.906 2.906 0 014.076 0l.248.247a2.85 2.85 0 010 4.043 2.906 2.906 0 01-4.077 0l-.248-.247a2.851 2.851 0 010-4.043zm6.228 6.39a2.906 2.906 0 014.077 0l8.492 8.392a2.86 2.86 0 010 4.05 2.906 2.906 0 01-4.077 0l-8.492-8.392c-1.129-1.106-1.121-2.93 0-4.05z" fill="#506CCF" fill-opacity=".65"/><path fill-rule="evenodd" clip-rule="evenodd" d="M15.818.835a2.906 2.906 0 014.077 0l1.782 1.771a2.86 2.86 0 010 4.05 2.906 2.906 0 01-4.077 0l-1.782-1.77a2.86 2.86 0 010-4.05z" fill="#506CCF"/><path fill-rule="evenodd" clip-rule="evenodd" d="M23.408 8.024a2.906 2.906 0 014.077 0l8.492 8.393a2.86 2.86 0 010 4.05 2.906 2.906 0 01-4.077 0l-8.492-8.392c-1.129-1.106-1.121-2.93 0-4.05z" fill="#506CCF" fill-opacity=".65"/><path fill-rule="evenodd" clip-rule="evenodd" d="M30.118.835c1.12-1.113 2.956-1.113 4.07 0l1.79 1.771a2.86 2.86 0 010 4.05 2.906 2.906 0 01-4.077 0l-1.783-1.77a2.846 2.846 0 010-4.05zM6.34 21.677a2.905 2.905 0 014.077 0l10.47 10.41a2.86 2.86 0 010 4.05 2.906 2.906 0 01-4.076 0L6.34 25.728a2.86 2.86 0 010-4.05z" fill="#506CCF"/><path fill-rule="evenodd" clip-rule="evenodd" d="M.84 16.387a2.906 2.906 0 014.078 0l.248.246a2.86 2.86 0 010 4.05 2.906 2.906 0 01-4.077 0l-.248-.246a2.86 2.86 0 010-4.05z" fill="#506CCF" fill-opacity=".65"/><path fill-rule="evenodd" clip-rule="evenodd" d="M.84 30.309a2.906 2.906 0 014.078 0L6.7 32.087a2.86 2.86 0 010 4.05 2.906 2.906 0 01-4.078 0L.841 34.36a2.86 2.86 0 010-4.05z" fill="#506CCF"/></svg>