<?xml version="1.0" encoding="utf-8"?><svg viewBox="0 0 800 800" xmlns="http://www.w3.org/2000/svg" xmlns:xlink="http://www.w3.org/1999/xlink"><style>:root>svg{display:none}:root>svg:target{display:block}</style><svg viewBox="0 0 32 32" id="arrow-down" xmlns="http://www.w3.org/2000/svg"><path fill-rule="evenodd" clip-rule="evenodd" d="M16 8a1 1 0 0 1 1 1v11.586l4.292-4.294a1 1 0 0 1 1.416 1.416l-6 6a.999.999 0 0 1-1.416 0l-6-6a1.002 1.002 0 0 1 1.416-1.416L15 20.586V9a1 1 0 0 1 1-1z"/></svg><svg viewBox="0 0 256 256" id="clock" xmlns="http://www.w3.org/2000/svg"><path d="M128 6.4C60.95 6.4 6.4 60.95 6.4 128S60.95 249.6 128 249.6 249.6 195.05 249.6 128 195.05 6.4 128 6.4zm0 18.24c57.192 0 103.36 46.168 103.36 103.36S185.192 231.36 128 231.36 24.64 185.192 24.64 128 70.808 24.64 128 24.64zm-3.183 30.27a9.12 9.12 0 0 0-8.977 9.25v72.96a9.12 9.12 0 0 0 9.12 9.12h48.64a9.12 9.12 0 1 0 0-18.24h-39.52V64.16a9.12 9.12 0 0 0-9.263-9.25z" fill="#5f6b77" font-family="none" font-weight="none" font-size="none" text-anchor="none"/></svg><svg fill="#5F6B77" viewBox="0 0 395.71 395.71" id="location-sign" xmlns="http://www.w3.org/2000/svg"><path d="M197.849 0C122.131 0 60.531 61.609 60.531 137.329c0 72.887 124.591 243.177 129.896 250.388l4.951 6.738a3.064 3.064 0 0 0 2.471 1.255 3.08 3.08 0 0 0 2.486-1.255l4.948-6.738c5.308-7.211 129.896-177.501 129.896-250.388C335.179 61.609 273.569 0 197.849 0zm0 88.138c27.13 0 49.191 22.062 49.191 49.191 0 27.115-22.062 49.191-49.191 49.191-27.114 0-49.191-22.076-49.191-49.191 0-27.129 22.076-49.191 49.191-49.191z"/></svg><svg fill="none" viewBox="0 0 37 38" id="logo" xmlns="http://www.w3.org/2000/svg"><path fill-rule="evenodd" clip-rule="evenodd" d="M.842.836a2.906 2.906 0 0 1 4.077 0l10.47 10.402a2.86 2.86 0 0 1 0 4.05 2.906 2.906 0 0 1-4.076 0L.842 4.887a2.86 2.86 0 0 1 0-4.05z" fill="#506CCF"/><path fill-rule="evenodd" clip-rule="evenodd" d="M17.18 17.298a2.906 2.906 0 0 1 4.076 0l.248.247a2.85 2.85 0 0 1 0 4.043 2.906 2.906 0 0 1-4.077 0l-.248-.247a2.851 2.851 0 0 1 0-4.043zm6.228 6.39a2.906 2.906 0 0 1 4.077 0l8.492 8.392a2.86 2.86 0 0 1 0 4.05 2.906 2.906 0 0 1-4.077 0l-8.492-8.392c-1.129-1.106-1.121-2.93 0-4.05z" fill="#506CCF" fill-opacity=".65"/><path fill-rule="evenodd" clip-rule="evenodd" d="M15.818.835a2.906 2.906 0 0 1 4.077 0l1.782 1.771a2.86 2.86 0 0 1 0 4.05 2.906 2.906 0 0 1-4.077 0l-1.782-1.77a2.86 2.86 0 0 1 0-4.05z" fill="#506CCF"/><path fill-rule="evenodd" clip-rule="evenodd" d="M23.408 8.024a2.906 2.906 0 0 1 4.077 0l8.492 8.393a2.86 2.86 0 0 1 0 4.05 2.906 2.906 0 0 1-4.077 0l-8.492-8.392c-1.129-1.106-1.121-2.93 0-4.05z" fill="#506CCF" fill-opacity=".65"/><path fill-rule="evenodd" clip-rule="evenodd" d="M30.118.835c1.12-1.113 2.956-1.113 4.07 0l1.79 1.771a2.86 2.86 0 0 1 0 4.05 2.906 2.906 0 0 1-4.077 0l-1.783-1.77a2.846 2.846 0 0 1 0-4.05zM6.34 21.677a2.905 2.905 0 0 1 4.077 0l10.47 10.41a2.86 2.86 0 0 1 0 4.05 2.906 2.906 0 0 1-4.076 0L6.34 25.728a2.86 2.86 0 0 1 0-4.05z" fill="#506CCF"/><path fill-rule="evenodd" clip-rule="evenodd" d="M.84 16.387a2.906 2.906 0 0 1 4.078 0l.248.246a2.86 2.86 0 0 1 0 4.05 2.906 2.906 0 0 1-4.077 0l-.248-.246a2.86 2.86 0 0 1 0-4.05z" fill="#506CCF" fill-opacity=".65"/><path fill-rule="evenodd" clip-rule="evenodd" d="M.84 30.309a2.906 2.906 0 0 1 4.078 0L6.7 32.087a2.86 2.86 0 0 1 0 4.05 2.906 2.906 0 0 1-4.078 0L.841 34.36a2.86 2.86 0 0 1 0-4.05z" fill="#506CCF"/></svg><svg viewBox="0 0 256 256" id="telegram" xmlns="http://www.w3.org/2000/svg"><path d="M241.1 17.021c-2.843.125-5.61.916-8.106 1.915-2.47.993-16.69 7.062-37.688 16.04a118851.47 118851.47 0 0 0-75.354 32.262 286612.278 286612.278 0 0 0-107.297 45.999l.387-.148s-3.21 1.073-6.463 3.34c-1.627 1.134-3.378 2.597-4.811 4.731-1.433 2.134-2.481 5.158-2.086 8.356 1.387 11.235 13.03 14.421 13.03 14.421l.045.023 51.962 17.784c1.324 4.42 15.76 52.6 18.935 62.803 1.754 5.64 3.395 8.895 5.107 11.115.857 1.11 1.755 1.97 2.748 2.599.394.25.809.437 1.22.604.008.004.013-.004.022 0 .05.022.098.024.148.046l-.136-.034c.095.038.19.103.285.136.185.065.298.063.535.114 5.951 2.078 10.876-1.778 10.876-1.778l.205-.16 31.92-29.605 51.802 40.39.65.296c9.067 4.026 17.267 1.78 21.808-1.915 4.54-3.695 6.327-8.459 6.327-8.459l.194-.501L255.429 39c.974-4.438 1.113-8.275.194-11.742-.919-3.467-3.15-6.48-5.95-8.15-2.801-1.671-5.73-2.212-8.574-2.087zm.307 11.867c1.155-.053 2.01.079 2.28.24.27.16.391.14.65 1.117.259.978.4 3.036-.308 6.259l-.023.068-37.848 197.243c-.09.198-.878 2.023-2.679 3.488-1.837 1.495-3.88 2.662-9.302.388l-56.647-44.175-1.596-1.254-.034.034-16.94-12.71 95.2-112.006a5.837 5.837 0 0 0-7.683-8.641L68.72 150.777 16.68 132.96s-5.168-2.875-5.415-4.879c-.014-.11-.075-.01.194-.41.268-.4.943-1.075 1.79-1.665 1.692-1.179 3.625-1.892 3.625-1.892l.194-.069.193-.08s53.183-22.814 107.297-45.998a115788.62 115788.62 0 0 1 75.343-32.25c20.988-8.974 36.153-15.433 37.437-15.95a12.709 12.709 0 0 1 4.07-.877zm-63.133 62.883-72.196 84.941-.034.034c-.113.136-.22.277-.32.422a5.846 5.846 0 0 0-.319.49 5.838 5.838 0 0 0-.764 2.246v.046l-9.405 42.294c-.156-.457-.266-.624-.433-1.163v-.011c-2.987-9.599-16.606-55.037-18.49-61.321zm-64.045 98.86 12.973 9.736-19.06 17.67z" font-family="none" font-weight="none" font-size="none" text-anchor="none"/></svg><svg viewBox="0 0 24 24" id="vk" xmlns="http://www.w3.org/2000/svg"><path d="M12.145 19.519c3.472 0 2.234-2.113 2.502-2.721-.004-.454-.008-.89.008-1.156.22.06.739.313 1.811 1.314 1.655 1.606 2.078 2.563 3.415 2.563h2.461c.78 0 1.186-.31 1.389-.571.196-.252.388-.694.178-1.383-.549-1.658-3.751-4.52-3.95-4.822.03-.056.078-.13.103-.168h-.002c.632-.803 3.044-4.278 3.399-5.668a.018.018 0 0 0 .002-.008c.192-.635.016-1.046-.166-1.279-.274-.348-.71-.524-1.299-.524h-2.461c-.824 0-1.449.399-1.765 1.127-.529 1.293-2.015 3.953-3.129 4.894a59.277 59.277 0 0 1 .007-3.109c.036-1.476.152-2.912-1.441-2.912H9.339c-.998 0-1.953 1.048-.919 2.292.904 1.09.325 1.698.52 4.723-.76-.783-2.112-2.9-3.068-5.604-.268-.732-.674-1.41-1.817-1.41H1.594C.596 5.097 0 5.62 0 6.496c0 1.967 4.529 13.023 12.145 13.023zm-8.09-12.98c.217 0 .239 0 .4.44.979 2.772 3.175 6.874 4.779 6.874 1.205 0 1.205-1.188 1.205-1.635l-.001-3.56c-.066-1.177-.512-1.764-.805-2.12l3.508.004c.002.016-.02 3.938.01 4.888 0 1.349 1.114 2.122 2.853.43 1.835-1.992 3.104-4.969 3.155-5.09.075-.173.14-.232.376-.232h2.471l-.002.009c-.225 1.01-2.446 4.227-3.189 5.226-.012.015-.023.032-.034.048-.327.513-.593 1.08.045 1.879h.001c.058.067.209.225.429.444.684.679 3.03 3 3.238 3.923-.138.021-.288.006-2.613.01-.495 0-.882-.71-2.359-2.144-1.328-1.242-2.19-1.75-2.975-1.75-1.524 0-1.413 1.19-1.399 2.628.005 1.56-.005 1.067.006 1.165-.089.033-.344.1-1.009.1-6.345 0-10.477-9.683-10.636-11.534.055-.005.812-.002 2.546-.003z"/></svg><svg viewBox="0 0 256 256" id="yandex-zen" xmlns="http://www.w3.org/2000/svg"><path d="M139.216.176a5.582 5.582 0 0 0-5.526 5.646c.485 41.048 2.884 69.952 19.685 89.304 16.802 19.35 46.24 26.664 96.803 27.217a5.582 5.582 0 0 0 5.624-6.082C250.22 54.78 201.252 5.797 139.772.197a5.584 5.584 0 0 0-.556-.021zm-22.934.032c-.141.002-.283.01-.425.022C54.55 5.993 5.762 54.902.197 116.26a5.581 5.581 0 0 0 5.625 6.083c50.414-.58 79.776-7.909 96.52-27.261 16.743-19.352 19.12-48.231 19.608-89.227a5.581 5.581 0 0 0-5.668-5.647zm29.06 12.306c50.806 7.596 90.662 47.49 98.176 98.319-44.645-1.185-68.986-8.358-81.717-23.021-12.517-14.417-15.655-39.25-16.46-75.298zm-35.033.044c-.806 35.995-3.944 60.808-16.415 75.221-12.683 14.659-36.928 21.83-81.412 23.043 7.5-50.707 47.19-90.54 97.827-98.264zM5.822 133.658a5.581 5.581 0 0 0-5.624 6.081c5.57 61.364 54.352 110.273 115.66 116.03a5.582 5.582 0 0 0 6.093-5.624c-.489-40.996-2.866-69.874-19.61-89.227-16.743-19.353-46.105-26.683-96.52-27.26zm244.356 0c-50.563.552-80.002 7.865-96.803 27.216-16.8 19.352-19.197 48.257-19.685 89.304a5.582 5.582 0 0 0 6.082 5.624c61.475-5.6 110.443-54.571 116.03-116.052a5.582 5.582 0 0 0-5.624-6.093zm-6.66 11.51c-7.519 50.828-47.375 90.722-98.176 98.318.807-36.049 3.942-60.88 16.459-75.298 12.73-14.663 37.072-21.836 81.717-23.02zm-231.036.01c44.483 1.21 68.729 8.383 81.412 23.043 12.47 14.414 15.61 39.226 16.415 75.221-50.636-7.72-90.323-47.551-97.827-98.264z" font-family="none" font-weight="none" font-size="none" text-anchor="none"/></svg></svg>