<svg xmlns="http://www.w3.org/2000/svg" viewBox="0 0 256 256" width="50" height="50"><path d="M241.1 17.021c-2.843.125-5.61.916-8.106 1.915-2.47.993-16.69 7.062-37.688 16.04a118851.47 118851.47 0 00-75.354 32.262 286612.278 286612.278 0 00-107.297 45.999l.387-.148s-3.21 1.073-6.463 3.34c-1.627 1.134-3.378 2.597-4.811 4.731-1.433 2.134-2.481 5.158-2.086 8.356 1.387 11.235 13.03 14.421 13.03 14.421l.045.023 51.962 17.784c1.324 4.42 15.76 52.6 18.935 62.803 1.754 5.64 3.395 8.895 5.107 11.115.857 1.11 1.755 1.97 2.748 2.599.394.25.809.437 1.22.604.008.004.013-.004.022 0 .05.022.098.024.148.046l-.136-.034c.095.038.19.103.285.136.185.065.298.063.535.114 5.951 2.078 10.876-1.778 10.876-1.778l.205-.16 31.92-29.605 51.802 40.39.65.296c9.067 4.026 17.267 1.78 21.808-1.915 4.54-3.695 6.327-8.459 6.327-8.459l.194-.501L255.429 39c.974-4.438 1.113-8.275.194-11.742-.919-3.467-3.15-6.48-5.95-8.15-2.801-1.671-5.73-2.212-8.574-2.087zm.307 11.867c1.155-.053 2.01.079 2.28.24.27.16.391.14.65 1.117.259.978.4 3.036-.308 6.259l-.023.068-37.848 197.243c-.09.198-.878 2.023-2.679 3.488-1.837 1.495-3.88 2.662-9.302.388l-56.647-44.175-1.596-1.254-.034.034-16.94-12.71 95.2-112.006a5.837 5.837 0 00-7.683-8.641L68.72 150.777 16.68 132.96s-5.168-2.875-5.415-4.879c-.014-.11-.075-.01.194-.41.268-.4.943-1.075 1.79-1.665 1.692-1.179 3.625-1.892 3.625-1.892l.194-.069.193-.08s53.183-22.814 107.297-45.998a115788.62 115788.62 0 0175.343-32.25c20.988-8.974 36.153-15.433 37.437-15.95a12.709 12.709 0 014.07-.877zm-63.133 62.883l-72.196 84.941-.034.034c-.113.136-.22.277-.32.422a5.846 5.846 0 00-.319.49 5.838 5.838 0 00-.764 2.246v.046l-9.405 42.294c-.156-.457-.266-.624-.433-1.163v-.011c-2.987-9.599-16.606-55.037-18.49-61.321zm-64.045 98.86l12.973 9.736-19.06 17.67z" font-family="none" font-weight="none" font-size="none" text-anchor="none"/></svg>