<svg width="24" height="24" xmlns="http://www.w3.org/2000/svg"><path d="M12.145 19.519c3.472 0 2.234-2.113 2.502-2.721-.004-.454-.008-.89.008-1.156.22.06.739.313 1.811 1.314 1.655 1.606 2.078 2.563 3.415 2.563h2.461c.78 0 1.186-.31 1.389-.571.196-.252.388-.694.178-1.383-.549-1.658-3.751-4.52-3.95-4.822.03-.056.078-.13.103-.168h-.002c.632-.803 3.044-4.278 3.399-5.668a.018.018 0 00.002-.008c.192-.635.016-1.046-.166-1.279-.274-.348-.71-.524-1.299-.524h-2.461c-.824 0-1.449.399-1.765 1.127-.529 1.293-2.015 3.953-3.129 4.894a59.277 59.277 0 01.007-3.109c.036-1.476.152-2.912-1.441-2.912H9.339c-.998 0-1.953 1.048-.919 2.292.904 1.09.325 1.698.52 4.723-.76-.783-2.112-2.9-3.068-5.604-.268-.732-.674-1.41-1.817-1.41H1.594C.596 5.097 0 5.62 0 6.496c0 1.967 4.529 13.023 12.145 13.023zm-8.09-12.98c.217 0 .239 0 .4.44.979 2.772 3.175 6.874 4.779 6.874 1.205 0 1.205-1.188 1.205-1.635l-.001-3.56c-.066-1.177-.512-1.764-.805-2.12l3.508.004c.002.016-.02 3.938.01 4.888 0 1.349 1.114 2.122 2.853.43 1.835-1.992 3.104-4.969 3.155-5.09.075-.173.14-.232.376-.232h2.471l-.002.009c-.225 1.01-2.446 4.227-3.189 5.226-.012.015-.023.032-.034.048-.327.513-.593 1.08.045 1.879h.001c.058.067.209.225.429.444.684.679 3.03 3 3.238 3.923-.138.021-.288.006-2.613.01-.495 0-.882-.71-2.359-2.144-1.328-1.242-2.19-1.75-2.975-1.75-1.524 0-1.413 1.19-1.399 2.628.005 1.56-.005 1.067.006 1.165-.089.033-.344.1-1.009.1-6.345 0-10.477-9.683-10.636-11.534.055-.005.812-.002 2.546-.003z"/></svg>