<svg xmlns="http://www.w3.org/2000/svg" viewBox="0 0 256 256" width="50" height="50"><path d="M139.216.176a5.582 5.582 0 00-5.526 5.646c.485 41.048 2.884 69.952 19.685 89.304 16.802 19.35 46.24 26.664 96.803 27.217a5.582 5.582 0 005.624-6.082C250.22 54.78 201.252 5.797 139.772.197a5.584 5.584 0 00-.556-.021zm-22.934.032c-.141.002-.283.01-.425.022C54.55 5.993 5.762 54.902.197 116.26a5.581 5.581 0 005.625 6.083c50.414-.58 79.776-7.909 96.52-27.261 16.743-19.352 19.12-48.231 19.608-89.227a5.581 5.581 0 00-5.668-5.647zm29.06 12.306c50.806 7.596 90.662 47.49 98.176 98.319-44.645-1.185-68.986-8.358-81.717-23.021-12.517-14.417-15.655-39.25-16.46-75.298zm-35.033.044c-.806 35.995-3.944 60.808-16.415 75.221-12.683 14.659-36.928 21.83-81.412 23.043 7.5-50.707 47.19-90.54 97.827-98.264zM5.822 133.658a5.581 5.581 0 00-5.624 6.081c5.57 61.364 54.352 110.273 115.66 116.03a5.582 5.582 0 006.093-5.624c-.489-40.996-2.866-69.874-19.61-89.227-16.743-19.353-46.105-26.683-96.52-27.26zm244.356 0c-50.563.552-80.002 7.865-96.803 27.216-16.8 19.352-19.197 48.257-19.685 89.304a5.582 5.582 0 006.082 5.624c61.475-5.6 110.443-54.571 116.03-116.052a5.582 5.582 0 00-5.624-6.093zm-6.66 11.51c-7.519 50.828-47.375 90.722-98.176 98.318.807-36.049 3.942-60.88 16.459-75.298 12.73-14.663 37.072-21.836 81.717-23.02zm-231.036.01c44.483 1.21 68.729 8.383 81.412 23.043 12.47 14.414 15.61 39.226 16.415 75.221-50.636-7.72-90.323-47.551-97.827-98.264z" font-family="none" font-weight="none" font-size="none" text-anchor="none"/></svg>