<svg xmlns="http://www.w3.org/2000/svg" xmlns:xlink="http://www.w3.org/1999/xlink" viewBox="0,0,256,256" width="50px" height="50px"><g transform="translate(-11.52,-11.52) scale(1.09,1.09)"><g fill-rule="nonzero" stroke="none" stroke-width="1" stroke-linecap="butt" stroke-linejoin="miter" stroke-miterlimit="10" stroke-dasharray="" stroke-dashoffset="0" font-family="none" font-weight="none" font-size="none" text-anchor="none" style="mix-blend-mode: normal"><g transform="scale(5.12,5.12)"><path d="M27.00977,2.0957c-0.26555,0.0026 -0.51917,0.11072 -0.70493,0.3005c-0.18576,0.18979 -0.2884,0.44567 -0.28531,0.71121c0.08696,7.35516 0.51678,12.53447 3.52734,16.00195c3.01056,3.46748 8.28549,4.77793 17.3457,4.87695c0.28289,0.00332 0.55395,-0.11332 0.74603,-0.32103c0.19208,-0.20771 0.28719,-0.48705 0.26179,-0.76882c-1.00026,-11.01646 -9.7746,-19.79348 -20.79102,-20.79687c-0.03312,-0.00296 -0.06636,-0.00426 -0.09961,-0.00391zM22.90039,2.10156c-0.02543,0.00033 -0.05084,0.00164 -0.07617,0.00391c-10.98535,1.03268 -19.72748,9.79641 -20.72461,20.79102c-0.02541,0.28176 0.06971,0.56111 0.26179,0.76882c0.19208,0.20771 0.46314,0.32435 0.74602,0.32103c9.03355,-0.10408 14.29466,-1.41714 17.29492,-4.88477c3.00026,-3.46762 3.42621,-8.64234 3.51367,-15.98828c0.00317,-0.26996 -0.10294,-0.52974 -0.29422,-0.72028c-0.19127,-0.19054 -0.45146,-0.29565 -0.72141,-0.29144zM28.10742,4.30664c9.10373,1.36093 16.24533,8.50946 17.5918,17.61719c-7.99974,-0.21227 -12.36132,-1.49751 -14.64258,-4.125c-2.24289,-2.5833 -2.80505,-7.03288 -2.94922,-13.49219zM21.83008,4.31445c-0.14442,6.44983 -0.70682,10.89584 -2.94141,13.47852c-2.27267,2.62669 -6.61703,3.91169 -14.58789,4.12891c1.34397,-9.08589 8.45595,-16.22348 17.5293,-17.60742zM3.10742,26.01367c-0.28289,-0.00332 -0.55395,0.11332 -0.74602,0.32103c-0.19208,0.20771 -0.28719,0.48705 -0.26179,0.76882c0.99816,10.99544 9.73919,19.75937 20.72461,20.79102c0.28208,0.02599 0.56196,-0.06886 0.77012,-0.261c0.20816,-0.19214 0.32506,-0.46355 0.32168,-0.74681c-0.08746,-7.34594 -0.51342,-12.52053 -3.51367,-15.98828c-3.00026,-3.46776 -8.26135,-4.78119 -17.29492,-4.88477zM46.89258,26.01367c-9.06021,0.09902 -14.33528,1.40947 -17.3457,4.87695c-3.01042,3.46748 -3.43988,8.64683 -3.52734,16.00195c-0.00332,0.28289 0.11332,0.55395 0.32103,0.74603c0.20771,0.19208 0.48705,0.28719 0.76882,0.26179c11.01545,-1.0034 19.78972,-9.77852 20.79102,-20.79492c0.02599,-0.28209 -0.06886,-0.56196 -0.261,-0.77012c-0.19214,-0.20816 -0.46355,-0.32506 -0.74681,-0.32168zM45.69922,28.07617c-1.34729,9.10779 -8.48894,16.25626 -17.5918,17.61719c0.14457,-6.45934 0.70643,-10.90889 2.94922,-13.49219c2.28115,-2.62749 6.64286,-3.91273 14.64258,-4.125zM4.30078,28.07813c7.97084,0.21679 12.31522,1.50211 14.58789,4.12891c2.23459,2.58278 2.79698,7.02866 2.94141,13.47852c-9.07326,-1.38318 -16.18461,-8.5205 -17.5293,-17.60742z"></path></g></g></g></svg>